# xmcd
#
# Track frame offsets: 
#        150
#        12697
#        24147
#        36144
#        46601
#        57405
#        68648
#        80465
#        92607
#        102280
#        113801
#        123346
#        134920
#        148780
#        158138
#        169419
#        182784
#        195338
#        205348
#        217824
#        229044
#        241111
#        253042
#        266640
#
# Disc length: 3690 seconds
#
# Revision: 3
# Processed by: cddbd v1.5.2PL0 Copyright (c) Steve Scherf et al.
# Submitted via: ExactAudioCopy v1.1
#
DISCID=4d0e6818
DTITLE=Roy Hamilton - Roy Hamilton:  Eight Classic Albums - Disc 2
DYEAR=2014
DGENRE=Rhythm and Blues
TTITLE0=Without A Song (mono)
TTITLE1=Cuban Love Song (mono)
TTITLE2=Trees (mono)
TTITLE3=A Little Valley (mono)
TTITLE4=Misty Valley (mono)
TTITLE5=Take Me With You (mono)
TTITLE6=Since I Fell For You (mono)
TTITLE7=All This Is Mine (mono)
TTITLE8=If You Are But A Dream (mono)
TTITLE9=My Own Beloved (mono)
TTITLE10=If Each One Would Teach One (mono)
TTITLE11=Because (mono)
TTITLE12=The Golden Boy (mono)
TTITLE13=Earthbound (mono)
TTITLE14=Love Is A Many Splendored Thing (mono)
TTITLE15=Sweet Slumber (mono)
TTITLE16=The Perfect Heart (mono)
TTITLE17=Walk Along With Kings (mono)
TTITLE18=There Goes My Heart (mono)
TTITLE19=If I Were A Countryside (mono)
TTITLE20=Somebody, Somewhere (mono)
TTITLE21=Someday, I'll Meet You Again (mono)
TTITLE22=Oh! What I Seemed To Be (mono)
TTITLE23=My Secret Emotion (mono)
EXTD=
EXTT0=
EXTT1=
EXTT2=
EXTT3=
EXTT4=
EXTT5=
EXTT6=
EXTT7=
EXTT8=
EXTT9=
EXTT10=
EXTT11=
EXTT12=
EXTT13=
EXTT14=
EXTT15=
EXTT16=
EXTT17=
EXTT18=
EXTT19=
EXTT20=
EXTT21=
EXTT22=
EXTT23=
PLAYORDER=
